<svg width="255" height="182" xmlns="http://www.w3.org/2000/svg" xmlns:xlink="http://www.w3.org/1999/xlink" overflow="hidden"><defs><clipPath id="clip0"><path d="M509 456 764 456 764 638 509 638Z" fill-rule="evenodd" clip-rule="evenodd"/></clipPath></defs><g clip-path="url(#clip0)" transform="translate(-509 -456)"><path d="M517.5 559.345C517.5 535.682 536.682 516.5 560.345 516.5L714.655 516.5C738.318 516.5 757.5 535.682 757.5 559.345L757.5 578.655C757.5 602.318 738.318 621.5 714.655 621.5L560.345 621.5C536.682 621.5 517.5 602.318 517.5 578.655Z" stroke="#843C0C" stroke-width="13" stroke-miterlimit="8" fill="#ED7D31" fill-rule="evenodd"/><rect x="557" y="457" width="158" height="56" fill="#FFD966"/><path d="M709 547C709 543.686 711.686 541 715 541 718.314 541 721 543.686 721 547 721 550.314 718.314 553 715 553 711.686 553 709 550.314 709 547Z" stroke="#FFFFFF" stroke-width="2" stroke-miterlimit="8" fill="#FFFFFF" fill-rule="evenodd"/><rect x="552" y="577" width="169" height="12" fill="#843C0C"/><text font-family="Economica,Economica_MSFontService,sans-serif" font-weight="400" font-size="23" transform="translate(555.52 554)">Singlepage.js</text><rect x="558" y="582" width="157" height="55" fill="#FFD966"/><rect x="573" y="597" width="128" height="4" stroke="#BF9000" stroke-width="2" stroke-miterlimit="8" fill="#BF9000"/><rect x="573" y="609" width="127" height="4" stroke="#BF9000" stroke-width="2" stroke-miterlimit="8" fill="#BF9000"/><rect x="573" y="621" width="127" height="4" stroke="#BF9000" stroke-width="2" stroke-miterlimit="8" fill="#BF9000"/></g></svg>